<mxfile host="app.diagrams.net" modified="2023-06-21T09:16:35.951Z" agent="Mozilla/5.0 (Windows NT 10.0; Win64; x64) AppleWebKit/537.36 (KHTML, like Gecko) Chrome/113.0.0.0 Safari/537.36" etag="d2NUKVc1ezu1NGQk0SNF" version="21.3.3" type="device">
  <diagram name="Seite-1" id="YglZhRk7xMOnZgZySeeW">
    <mxGraphModel dx="1216" dy="558" grid="1" gridSize="10" guides="1" tooltips="1" connect="1" arrows="1" fold="1" page="1" pageScale="1" pageWidth="827" pageHeight="1169" math="0" shadow="0">
      <root>
        <mxCell id="0" />
        <mxCell id="1" parent="0" />
        <mxCell id="0VNga45Obvf3ds35YNYD-3" value="requestSession()" style="edgeStyle=orthogonalEdgeStyle;rounded=0;orthogonalLoop=1;jettySize=auto;html=1;entryX=0;entryY=0.25;entryDx=0;entryDy=0;exitX=0;exitY=0.75;exitDx=0;exitDy=0;" edge="1" parent="1" source="0VNga45Obvf3ds35YNYD-1" target="0VNga45Obvf3ds35YNYD-2">
          <mxGeometry relative="1" as="geometry">
            <mxPoint x="190" y="140" as="sourcePoint" />
            <mxPoint x="170" y="280" as="targetPoint" />
          </mxGeometry>
        </mxCell>
        <mxCell id="0VNga45Obvf3ds35YNYD-1" value="Main API&lt;br&gt;O2x5xxRPCDevice(address)" style="rounded=0;whiteSpace=wrap;html=1;fillColor=#d5e8d4;strokeColor=#82b366;" vertex="1" parent="1">
          <mxGeometry x="240" y="120" width="200" height="80" as="geometry" />
        </mxCell>
        <mxCell id="0VNga45Obvf3ds35YNYD-6" value="setOperationMode(1)" style="edgeStyle=orthogonalEdgeStyle;rounded=0;orthogonalLoop=1;jettySize=auto;html=1;exitX=0;exitY=0.75;exitDx=0;exitDy=0;entryX=0;entryY=0.25;entryDx=0;entryDy=0;" edge="1" parent="1" source="0VNga45Obvf3ds35YNYD-2" target="0VNga45Obvf3ds35YNYD-4">
          <mxGeometry relative="1" as="geometry" />
        </mxCell>
        <mxCell id="0VNga45Obvf3ds35YNYD-18" value="cancelSession()" style="edgeStyle=orthogonalEdgeStyle;rounded=0;orthogonalLoop=1;jettySize=auto;html=1;exitX=1;exitY=0.25;exitDx=0;exitDy=0;fillColor=#f8cecc;strokeColor=#b85450;entryX=0.75;entryY=0;entryDx=0;entryDy=0;" edge="1" parent="1" source="0VNga45Obvf3ds35YNYD-2" target="0VNga45Obvf3ds35YNYD-2">
          <mxGeometry relative="1" as="geometry">
            <mxPoint x="550" y="200" as="targetPoint" />
            <Array as="points">
              <mxPoint x="460" y="260" />
              <mxPoint x="460" y="220" />
              <mxPoint x="390" y="220" />
            </Array>
            <mxPoint as="offset" />
          </mxGeometry>
        </mxCell>
        <mxCell id="0VNga45Obvf3ds35YNYD-2" value="Session" style="rounded=0;whiteSpace=wrap;html=1;fillColor=#fff2cc;strokeColor=#d6b656;" vertex="1" parent="1">
          <mxGeometry x="240" y="240" width="200" height="80" as="geometry" />
        </mxCell>
        <mxCell id="0VNga45Obvf3ds35YNYD-8" value="editApplication(1)" style="edgeStyle=orthogonalEdgeStyle;rounded=0;orthogonalLoop=1;jettySize=auto;html=1;exitX=0;exitY=0.75;exitDx=0;exitDy=0;entryX=0;entryY=0.25;entryDx=0;entryDy=0;" edge="1" parent="1" source="0VNga45Obvf3ds35YNYD-4" target="0VNga45Obvf3ds35YNYD-7">
          <mxGeometry relative="1" as="geometry" />
        </mxCell>
        <mxCell id="0VNga45Obvf3ds35YNYD-17" value="setOperationMode(0)" style="edgeStyle=orthogonalEdgeStyle;rounded=0;orthogonalLoop=1;jettySize=auto;html=1;entryX=1;entryY=0.75;entryDx=0;entryDy=0;fillColor=#f8cecc;strokeColor=#b85450;exitX=0.75;exitY=1;exitDx=0;exitDy=0;" edge="1" parent="1" source="0VNga45Obvf3ds35YNYD-2" target="0VNga45Obvf3ds35YNYD-2">
          <mxGeometry relative="1" as="geometry">
            <mxPoint x="480" y="380" as="sourcePoint" />
          </mxGeometry>
        </mxCell>
        <mxCell id="0VNga45Obvf3ds35YNYD-4" value="Edit" style="rounded=0;whiteSpace=wrap;html=1;fillColor=#ffe6cc;strokeColor=#d79b00;" vertex="1" parent="1">
          <mxGeometry x="240" y="360" width="200" height="80" as="geometry" />
        </mxCell>
        <mxCell id="0VNga45Obvf3ds35YNYD-14" value="&#xa;&lt;span style=&quot;color: rgb(0, 0, 0); font-family: Helvetica; font-size: 11px; font-style: normal; font-variant-ligatures: normal; font-variant-caps: normal; font-weight: 400; letter-spacing: normal; orphans: 2; text-align: center; text-indent: 0px; text-transform: none; widows: 2; word-spacing: 0px; -webkit-text-stroke-width: 0px; background-color: rgb(255, 255, 255); text-decoration-thickness: initial; text-decoration-style: initial; text-decoration-color: initial; float: none; display: inline !important;&quot;&gt;editImager(1)&lt;/span&gt;&#xa;&#xa;" style="edgeStyle=orthogonalEdgeStyle;rounded=0;orthogonalLoop=1;jettySize=auto;html=1;exitX=1;exitY=0.5;exitDx=0;exitDy=0;entryX=0.5;entryY=0;entryDx=0;entryDy=0;" edge="1" parent="1" source="0VNga45Obvf3ds35YNYD-7" target="0VNga45Obvf3ds35YNYD-9">
          <mxGeometry relative="1" as="geometry" />
        </mxCell>
        <mxCell id="0VNga45Obvf3ds35YNYD-15" value="stopEditingApplication()" style="edgeStyle=orthogonalEdgeStyle;rounded=0;orthogonalLoop=1;jettySize=auto;html=1;entryX=1;entryY=0.75;entryDx=0;entryDy=0;fillColor=#f8cecc;strokeColor=#b85450;exitX=0.75;exitY=1;exitDx=0;exitDy=0;" edge="1" parent="1" source="0VNga45Obvf3ds35YNYD-4" target="0VNga45Obvf3ds35YNYD-4">
          <mxGeometry relative="1" as="geometry">
            <mxPoint x="490" y="490" as="sourcePoint" />
            <mxPoint as="offset" />
          </mxGeometry>
        </mxCell>
        <mxCell id="0VNga45Obvf3ds35YNYD-7" value="Application" style="rounded=0;whiteSpace=wrap;html=1;fillColor=#fad7ac;strokeColor=#b46504;" vertex="1" parent="1">
          <mxGeometry x="240" y="480" width="200" height="80" as="geometry" />
        </mxCell>
        <mxCell id="0VNga45Obvf3ds35YNYD-12" style="edgeStyle=orthogonalEdgeStyle;rounded=0;orthogonalLoop=1;jettySize=auto;html=1;exitX=1;exitY=0.5;exitDx=0;exitDy=0;entryX=0.5;entryY=0;entryDx=0;entryDy=0;" edge="1" parent="1" source="0VNga45Obvf3ds35YNYD-9" target="0VNga45Obvf3ds35YNYD-11">
          <mxGeometry relative="1" as="geometry" />
        </mxCell>
        <mxCell id="0VNga45Obvf3ds35YNYD-9" value="Imager" style="rounded=0;whiteSpace=wrap;html=1;fillColor=#b0e3e6;strokeColor=#0e8088;" vertex="1" parent="1">
          <mxGeometry x="480" y="560" width="200" height="40" as="geometry" />
        </mxCell>
        <mxCell id="0VNga45Obvf3ds35YNYD-11" value="ImageQualityCheck" style="rounded=0;whiteSpace=wrap;html=1;fillColor=#b1ddf0;strokeColor=#10739e;" vertex="1" parent="1">
          <mxGeometry x="720" y="620" width="200" height="40" as="geometry" />
        </mxCell>
        <mxCell id="0VNga45Obvf3ds35YNYD-19" value="save()" style="edgeStyle=orthogonalEdgeStyle;rounded=0;orthogonalLoop=1;jettySize=auto;html=1;exitX=0.25;exitY=1;exitDx=0;exitDy=0;entryX=0.75;entryY=1;entryDx=0;entryDy=0;" edge="1" parent="1" source="0VNga45Obvf3ds35YNYD-7" target="0VNga45Obvf3ds35YNYD-7">
          <mxGeometry relative="1" as="geometry" />
        </mxCell>
        <mxCell id="0VNga45Obvf3ds35YNYD-21" value="stopEditingApplication() will remove the Application object from RPC" style="rounded=1;whiteSpace=wrap;html=1;fillColor=#ffff88;strokeColor=#36393d;" vertex="1" parent="1">
          <mxGeometry x="480" y="380" width="210" height="60" as="geometry" />
        </mxCell>
        <mxCell id="0VNga45Obvf3ds35YNYD-22" value="setOperationMode(0) will remove the Edit object from RPC" style="rounded=1;whiteSpace=wrap;html=1;fillColor=#ffff88;strokeColor=#36393d;" vertex="1" parent="1">
          <mxGeometry x="480" y="260" width="210" height="60" as="geometry" />
        </mxCell>
        <mxCell id="0VNga45Obvf3ds35YNYD-23" value="cancelSession() removes the Session object from RPC" style="rounded=1;whiteSpace=wrap;html=1;fillColor=#ffff88;strokeColor=#36393d;" vertex="1" parent="1">
          <mxGeometry x="480" y="140" width="210" height="60" as="geometry" />
        </mxCell>
        <mxCell id="0VNga45Obvf3ds35YNYD-24" value="save() stores current configuration in persistent memory." style="rounded=1;whiteSpace=wrap;html=1;fillColor=#ffff88;strokeColor=#36393d;" vertex="1" parent="1">
          <mxGeometry x="240" y="600" width="200" height="60" as="geometry" />
        </mxCell>
      </root>
    </mxGraphModel>
  </diagram>
</mxfile>
